<svg width="21" height="21" viewBox="0 0 21 21" fill="none" xmlns="http://www.w3.org/2000/svg">
	<rect width="21" height="21" rx="3" fill="white" />
	<path
		d="M4.59766 8.73633C4.18359 8.73633 3.85547 8.96289 3.61328 9.41602C3.375 9.86914 3.25586 10.4941 3.25586 11.291C3.25586 12.0996 3.375 12.7324 3.61328 13.1895C3.85156 13.6426 4.17969 13.8691 4.59766 13.8691C5.01562 13.8691 5.34375 13.6426 5.58203 13.1895C5.82422 12.7324 5.94531 12.0996 5.94531 11.291C5.94531 10.4941 5.82422 9.86914 5.58203 9.41602C5.34375 8.96289 5.01562 8.73633 4.59766 8.73633ZM4.58594 7.41797C5.48438 7.41797 6.19727 7.76758 6.72461 8.4668C7.25195 9.16211 7.51562 10.1074 7.51562 11.3027C7.51562 12.502 7.25195 13.4512 6.72461 14.1504C6.19727 14.8457 5.48438 15.1934 4.58594 15.1934C3.69531 15.1934 2.98828 14.8457 2.46484 14.1504C1.94531 13.4512 1.68555 12.502 1.68555 11.3027C1.68555 10.1035 1.94531 9.15625 2.46484 8.46094C2.98828 7.76562 3.69531 7.41797 4.58594 7.41797ZM10.8447 8.73633C10.4306 8.73633 10.1025 8.96289 9.86031 9.41602C9.62203 9.86914 9.50289 10.4941 9.50289 11.291C9.50289 12.0996 9.62203 12.7324 9.86031 13.1895C10.0986 13.6426 10.4267 13.8691 10.8447 13.8691C11.2627 13.8691 11.5908 13.6426 11.8291 13.1895C12.0712 12.7324 12.1923 12.0996 12.1923 11.291C12.1923 10.4941 12.0712 9.86914 11.8291 9.41602C11.5908 8.96289 11.2627 8.73633 10.8447 8.73633ZM10.833 7.41797C11.7314 7.41797 12.4443 7.76758 12.9716 8.4668C13.499 9.16211 13.7627 10.1074 13.7627 11.3027C13.7627 12.502 13.499 13.4512 12.9716 14.1504C12.4443 14.8457 11.7314 15.1934 10.833 15.1934C9.94234 15.1934 9.23531 14.8457 8.71187 14.1504C8.19234 13.4512 7.93258 12.502 7.93258 11.3027C7.93258 10.1035 8.19234 9.15625 8.71187 8.46094C9.23531 7.76562 9.94234 7.41797 10.833 7.41797ZM17.9823 13.752H18.9316C19.1933 13.752 19.3827 13.8008 19.4999 13.8984C19.6171 13.9961 19.6757 14.1562 19.6757 14.3789C19.6757 14.5977 19.6191 14.7559 19.5058 14.8535C19.3925 14.9512 19.2011 15 18.9316 15H15.4745C15.205 15 15.0136 14.9512 14.9003 14.8535C14.787 14.7559 14.7304 14.5977 14.7304 14.3789C14.7304 14.1562 14.787 13.9961 14.9003 13.8984C15.0175 13.8008 15.2089 13.752 15.4745 13.752H16.5644V8.80664L15.9081 8.97656C15.8066 9 15.7226 9.01758 15.6562 9.0293C15.5898 9.04102 15.5409 9.04688 15.5097 9.04688C15.3495 9.04688 15.2245 8.99609 15.1347 8.89453C15.0487 8.79297 15.0058 8.64844 15.0058 8.46094C15.0058 8.32422 15.0546 8.20898 15.1523 8.11523C15.2499 8.02148 15.4003 7.94922 15.6034 7.89844L17.0566 7.5C17.1777 7.46875 17.2773 7.44531 17.3554 7.42969C17.4335 7.41406 17.498 7.40625 17.5487 7.40625C17.705 7.40625 17.8163 7.44922 17.8827 7.53516C17.9491 7.62109 17.9823 7.76562 17.9823 7.96875V13.752Z"
		fill="#000011" />
</svg>